<?xml version="1.0" standalone="no"?>
<!DOCTYPE svg PUBLIC "-//W3C//DTD SVG 1.1//EN" "http://www.w3.org/Graphics/SVG/1.1/DTD/svg11.dtd" >
<svg xmlns="http://www.w3.org/2000/svg" xmlns:xlink="http://www.w3.org/1999/xlink" version="1.1">
<metadata>
Created by FontForge 20170731 at Wed Jun  5 19:40:34 2002
 By Aleksey,,,
Copyright (c) 1988, 1990, 1994, 2002 Adobe Systems Incorporated.  All Rights Reserved. (c) 1981, 2002 Heidelberger Druckmaschinen AG. All rights reserved.
</metadata>
<defs>
<font id="FrutigerLTStd-Roman" horiz-adv-x="556" >
  <font-face 
    font-family="Frutiger LT Std 55 Roman"
    font-weight="400"
    font-stretch="normal"
    units-per-em="1000"
    panose-1="2 11 6 2 2 2 4 2 2 4"
    ascent="750"
    descent="-250"
    x-height="510"
    cap-height="698"
    bbox="-169 -250 1000 935"
    underline-thickness="50"
    underline-position="-200"
    unicode-range="U+0020-FB02"
  />
<missing-glyph horiz-adv-x="500" 
d="M0 0v700h500v-700h-500zM250 395l170 255h-340zM280 350l170 -255v510zM80 50h340l-170 255zM50 605v-510l170 255z" />
    <glyph glyph-name="fi" unicode="fi" horiz-adv-x="667" 
d="M141 0v434h-120v76h120v47q0 102 36.5 153.5t134.5 51.5q25 0 63 -6l-4 -76q-17 6 -45 6q-56 0 -73.5 -30.5t-17.5 -90.5v-55h135v-76h-135v-434h-94zM581 730v-106h-106v106h106zM481 0v510h94v-510h-94z" />
    <glyph glyph-name="fl" unicode="fl" horiz-adv-x="667" 
d="M141 0v434h-120v76h120v47q0 102 36.5 153.5t134.5 51.5q25 0 63 -6l-4 -76q-17 6 -45 6q-56 0 -73.5 -30.5t-17.5 -90.5v-55h135v-76h-135v-434h-94zM481 0v750h94v-750h-94z" />
    <glyph glyph-name=".notdef" horiz-adv-x="500" 
d="M0 0v700h500v-700h-500zM250 395l170 255h-340zM280 350l170 -255v510zM80 50h340l-170 255zM50 605v-510l170 255z" />
    <glyph glyph-name=".null" horiz-adv-x="0" 
 />
    <glyph glyph-name="nonmarkingreturn" horiz-adv-x="333" 
 />
    <glyph glyph-name="space" unicode=" " horiz-adv-x="278" 
 />
    <glyph glyph-name="exclam" unicode="!" horiz-adv-x="389" 
d="M251 698l-13 -502h-86l-13 502h112zM139 0v112h112v-112h-112z" />
    <glyph glyph-name="quotedbl" unicode="&#x22;" 
d="M309 453v245h88v-245h-88zM159 453v245h88v-245h-88z" />
    <glyph glyph-name="numbersign" unicode="#" 
d="M94 0l29 208h-95v76h106l18 130h-96v76h107l29 208h76l-29 -208h118l29 208h76l-29 -208h95v-76h-106l-18 -130h95v-76h-106l-29 -208h-76l29 208h-118l-29 -208h-76zM328 284l18 130h-118l-18 -130h118z" />
    <glyph glyph-name="dollar" unicode="$" 
d="M247 435v179q-34 -12 -50 -33.5t-16 -57.5q0 -47 66 -88zM305 290v-203q31 10 50.5 39t19.5 63q0 38 -18 60.5t-52 40.5zM247 -106v94h-12q-82 0 -152 29l12 96q53 -37 138 -37h14v243l-34 17q-66 33 -102 75t-36 109q0 74 49 124t123 62v100h58v-96q76 -2 143 -25
l-14 -92q-49 29 -119 29h-10v-217l58 -32q60 -33 89 -73t29 -105q0 -80 -48 -134t-128 -67v-100h-58z" />
    <glyph glyph-name="percent" unicode="%" horiz-adv-x="1000" 
d="M260 310q-80 0 -115 57t-35 143q0 92 33 146t117 54q150 0 150 -200q0 -86 -35 -143t-115 -57zM260 380q62 0 62 130v7q0 25 -1 40t-6 37.5t-19 34t-36 11.5t-35.5 -13t-19 -37.5t-6.5 -40t-1 -39.5q0 -130 62 -130zM740 58q62 0 62 130v7q0 25 -1 40t-6 37.5t-19 34
t-36 11.5t-35.5 -13t-19 -37.5t-6.5 -40t-1 -39.5q0 -130 62 -130zM740 -12q-80 0 -115 57t-35 143q0 92 33 146t117 54q150 0 150 -200q0 -86 -35 -143t-115 -57zM247 -22l433 742h72l-433 -742h-72z" />
    <glyph glyph-name="ampersand" unicode="&#x26;" horiz-adv-x="722" 
d="M554 377h94q-6 -78 -26 -132.5t-54 -106.5l122 -138h-125l-57 68q-70 -80 -200 -80q-103 0 -164 53.5t-61 141.5q0 141 156 204q-35 42 -53.5 78t-18.5 81q0 80 51 122t131 42q74 0 123.5 -40t49.5 -118q0 -61 -44 -107t-109 -75l142 -162q36 57 43 169zM189 190
q0 -56 40.5 -91t96.5 -35q70 0 129 67l-168 197q-33 -22 -50.5 -37t-32.5 -42t-15 -59zM261 544q0 -50 62 -118q41 19 73 50.5t32 71.5q0 86 -83 86q-36 0 -60 -23.5t-24 -66.5z" />
    <glyph glyph-name="quotesingle" unicode="'" horiz-adv-x="278" 
d="M95 453v245h88v-245h-88z" />
    <glyph glyph-name="parenleft" unicode="(" horiz-adv-x="333" 
d="M319 -140h-90q-78 116 -121 224t-43 224q0 117 42 221t122 227h90q-73 -130 -113.5 -235t-40.5 -213q0 -110 41 -218t113 -230z" />
    <glyph glyph-name="parenright" unicode=")" horiz-adv-x="333" 
d="M14 756h90q78 -116 121 -224t43 -224q0 -117 -42 -221t-122 -227h-90q73 130 113.5 235t40.5 213q0 110 -41 218t-113 230z" />
    <glyph glyph-name="asterisk" unicode="*" 
d="M359 310l-81 138l-82 -138l-74 50l110 123l-160 33l28 85l151 -62l-16 159h91l-15 -159l146 62l27 -85l-157 -33l107 -123z" />
    <glyph glyph-name="plus" unicode="+" horiz-adv-x="600" 
d="M47 209v88h209v209h88v-209h209v-88h-209v-209h-88v209h-209z" />
    <glyph glyph-name="comma" unicode="," horiz-adv-x="278" 
d="M20 -133l63 245h112l-85 -245h-90z" />
    <glyph glyph-name="hyphen" unicode="-" horiz-adv-x="333" 
d="M38 231v76h257v-76h-257z" />
    <glyph glyph-name="period" unicode="." horiz-adv-x="278" 
d="M83 0v112h112v-112h-112z" />
    <glyph glyph-name="slash" unicode="/" horiz-adv-x="278" 
d="M-25 -12l240 722h88l-240 -722h-88z" />
    <glyph glyph-name="zero" unicode="0" 
d="M41 349q0 64 10.5 122t35 114.5t73.5 90.5t118 34t118 -34t73.5 -90.5t35 -114.5t10.5 -122t-10.5 -122t-35 -114.5t-73.5 -90.5t-118 -34t-118 34t-73.5 90.5t-35 114.5t-10.5 122zM147 349q0 -43 4 -82t16 -88.5t40.5 -79t70.5 -29.5t70.5 29.5t40.5 79t16 88.5t4 82
q0 41 -5 82t-17 89t-40.5 78t-68.5 30t-68.5 -30t-40.5 -78t-17 -89t-5 -82z" />
    <glyph glyph-name="one" unicode="1" 
d="M269 0v583l-107 -92l-53 67l171 140h89v-698h-100z" />
    <glyph glyph-name="two" unicode="2" 
d="M50 0v107q104 93 125 112q36 33 52 49t50.5 53.5t51.5 64t32 63t15 68.5q0 48 -38.5 79.5t-95.5 31.5q-79 0 -160 -45l-10 86q95 41 183 41q99 0 163 -52t64 -147q0 -41 -18.5 -85t-56 -91t-61.5 -73t-66 -68q-17 -17 -39.5 -37.5t-47.5 -42.5t-36 -32h335v-82h-442z" />
    <glyph glyph-name="three" unicode="3" 
d="M145 322v82h56q41 0 77.5 9t66 36.5t29.5 68.5q0 56 -38.5 83t-98.5 27q-79 0 -155 -38l-6 89q84 31 175 31q99 0 164 -48t65 -142q0 -63 -43 -105t-107 -54v-2q73 -15 114.5 -58t41.5 -115q0 -198 -275 -198q-69 0 -160 27l6 93q76 -38 153 -38q67 0 118.5 29t51.5 90
q0 133 -174 133h-61z" />
    <glyph glyph-name="four" unicode="4" 
d="M344 241v375h-2l-218 -375h220zM344 0v159h-325v82l282 457h143v-457h88v-82h-88v-159h-100z" />
    <glyph glyph-name="five" unicode="5" 
d="M478 698v-82h-290l-6 -187q38 10 90 10q93 0 159.5 -62t66.5 -154q0 -110 -76.5 -172.5t-190.5 -62.5q-86 0 -150 23l3 94q63 -35 145 -35q66 0 114.5 37t48.5 101q0 72 -47.5 110.5t-121.5 38.5q-75 0 -135 -26l6 367h384z" />
    <glyph glyph-name="six" unicode="6" 
d="M479 688l-14 -89q-55 29 -124 29q-93 0 -143 -73t-52 -181l2 1q65 64 153 64q99 0 154.5 -61.5t55.5 -158.5q0 -106 -63 -168.5t-161 -62.5q-235 0 -235 335q0 76 13.5 141t44.5 122.5t88.5 90.5t136.5 33q36 0 80.5 -7t63.5 -15zM405 217q0 54 -31 97t-86 43
q-60 0 -95 -39.5t-35 -100.5q0 -55 33 -101t90 -46q60 0 92 43t32 104z" />
    <glyph glyph-name="seven" unicode="7" 
d="M491 698v-82l-258 -616h-110l266 616h-340v82h442z" />
    <glyph glyph-name="eight" unicode="8" 
d="M276 -12q-96 0 -167 52t-71 143q0 67 40.5 114t107.5 70v2q-131 46 -131 174q0 70 61.5 118.5t164.5 48.5q98 0 157 -47.5t59 -109.5q0 -60 -28.5 -101.5t-97.5 -78.5q66 -23 106.5 -70.5t40.5 -114.5q0 -100 -68 -150t-174 -50zM412 180q1 24 -5.5 43t-15 31t-27 24.5
t-30.5 18.5t-37 16.5t-37 16.5q-10 -7 -33 -21.5t-33.5 -22.5t-24.5 -22.5t-19.5 -32.5t-5.5 -42q0 -55 42.5 -87t98.5 -32q52 0 89 29.5t38 80.5zM155 529q0 -34 33.5 -61.5t110.5 -65.5q58 45 75 72t17 66q0 45 -36.5 66.5t-81.5 21.5q-41 0 -79.5 -27t-38.5 -72z" />
    <glyph glyph-name="nine" unicode="9" 
d="M77 10l14 89q55 -29 124 -29q93 0 143 73t52 181l-2 -1q-65 -64 -153 -64q-99 0 -154.5 61.5t-55.5 158.5q0 106 63 168.5t161 62.5q235 0 235 -335q0 -76 -13.5 -141t-44.5 -122.5t-88.5 -90.5t-136.5 -33q-36 0 -80.5 7t-63.5 15zM151 481q0 -54 31 -97t86 -43
q60 0 95 39.5t35 100.5q0 55 -33 101t-90 46q-60 0 -92 -43t-32 -104z" />
    <glyph glyph-name="colon" unicode=":" horiz-adv-x="278" 
d="M195 510v-112h-112v112h112zM83 0v112h112v-112h-112z" />
    <glyph glyph-name="semicolon" unicode=";" horiz-adv-x="278" 
d="M20 -133l63 245h112l-85 -245h-90zM195 510v-112h-112v112h112z" />
    <glyph glyph-name="less" unicode="&#x3c;" horiz-adv-x="600" 
d="M554 514v-88l-394 -173l394 -173v-88l-508 223v76z" />
    <glyph glyph-name="equal" unicode="=" horiz-adv-x="600" 
d="M47 314v88h506v-88h-506zM47 104v88h506v-88h-506z" />
    <glyph glyph-name="greater" unicode="&#x3e;" horiz-adv-x="600" 
d="M46 -8v88l394 173l-394 173v88l508 -223v-76z" />
    <glyph glyph-name="question" unicode="?" horiz-adv-x="500" 
d="M204 196v21q0 47 13 77t49 72q3 3 14 15.5t15 17.5t13.5 17t13.5 19t10.5 19t9.5 21.5t5.5 21.5t2.5 24q0 50 -35 75.5t-86 25.5q-93 0 -148 -40l-7 95q76 33 166 33q88 0 152 -48.5t64 -133.5q0 -47 -20 -85.5t-61 -86t-56 -69.5q-21 -32 -21 -73v-18h-94zM195 0v112
h112v-112h-112z" />
    <glyph glyph-name="at" unicode="@" horiz-adv-x="800" 
d="M366 217q52 0 90 53t38 110q0 36 -22.5 60t-54.5 24q-56 0 -94.5 -50t-38.5 -106q0 -40 22 -65.5t60 -25.5zM615 532l-67 -254q-8 -28 -8 -42q2 -25 18 -25q45 0 83.5 56.5t38.5 130.5q0 113 -75.5 177.5t-189.5 64.5q-125 0 -204 -84t-79 -209q0 -138 81 -213.5
t212 -75.5q63 0 120.5 24t96.5 65h76q-49 -75 -127.5 -117t-169.5 -42q-160 0 -265.5 97t-105.5 264q0 160 106 260.5t260 100.5q136 0 235 -84t99 -213q0 -67 -26 -123t-64.5 -88t-77 -49.5t-69.5 -17.5q-24 0 -40.5 14.5t-17.5 41.5h-2q-54 -56 -109 -56q-62 0 -105 47
t-43 113q0 99 60.5 175t154.5 76q73 0 114 -66l15 52h75z" />
    <glyph glyph-name="A" unicode="A" horiz-adv-x="722" 
d="M12 0l298 698h105l295 -698h-109l-71 176h-342l-71 -176h-105zM498 258l-139 346l-139 -346h278z" />
    <glyph glyph-name="B" unicode="B" horiz-adv-x="611" 
d="M83 0v698h189q245 0 245 -176q0 -130 -144 -166v-2q73 -6 117.5 -51t44.5 -117q0 -54 -21 -92t-59.5 -57.5t-83.5 -28t-102 -8.5h-186zM183 318v-236h75q51 0 85.5 8t60 34t25.5 71q0 39 -15.5 64.5t-43.5 37.5t-56.5 16.5t-65.5 4.5h-65zM183 616v-216h55q43 0 70 3.5
t54.5 14t41 34t13.5 60.5q0 56 -38 80t-91 24h-105z" />
    <glyph glyph-name="C" unicode="C" horiz-adv-x="611" 
d="M579 680l-8 -97q-66 39 -144 39q-120 0 -194 -77t-74 -196q0 -121 76 -197t187 -76q95 0 152 34l6 -97q-60 -25 -159 -25q-166 0 -267 99t-101 265q0 160 104 259t265 99q89 0 157 -30z" />
    <glyph glyph-name="D" unicode="D" horiz-adv-x="722" 
d="M83 0v698h206q160 0 266 -93t106 -250q0 -173 -98.5 -264t-273.5 -91h-206zM183 610v-522h105q267 0 267 263q0 119 -72 189t-183 70h-117z" />
    <glyph glyph-name="E" unicode="E" 
d="M94 0v698h391v-88h-291v-204h265v-88h-265v-230h291v-88h-391z" />
    <glyph glyph-name="F" unicode="F" horiz-adv-x="500" 
d="M83 0v698h371v-88h-271v-204h259v-88h-259v-318h-100z" />
    <glyph glyph-name="G" unicode="G" horiz-adv-x="722" 
d="M627 675l-8 -101q-73 48 -192 48t-193.5 -77.5t-74.5 -195.5q0 -121 76 -197t187 -76q52 0 112 12v212h-147v82h247v-363q-91 -31 -213 -31q-166 0 -267 99t-101 265q0 160 104 259t265 99q48 0 87 -5t60.5 -11t57.5 -19z" />
    <glyph glyph-name="H" unicode="H" horiz-adv-x="722" 
d="M94 0v698h100v-292h334v292h100v-698h-100v318h-334v-318h-100z" />
    <glyph glyph-name="I" unicode="I" horiz-adv-x="278" 
d="M89 0v698h100v-698h-100z" />
    <glyph glyph-name="J" unicode="J" horiz-adv-x="389" 
d="M21 0v86q28 -10 63 -10q64 0 89 34t25 102v486h100v-518q0 -53 -16.5 -94t-62 -69.5t-117.5 -28.5q-50 0 -81 12z" />
    <glyph glyph-name="K" unicode="K" horiz-adv-x="667" 
d="M94 0v698h100v-307l298 307h133l-328 -330l354 -368h-146l-311 342v-342h-100z" />
    <glyph glyph-name="L" unicode="L" horiz-adv-x="500" 
d="M88 0v698h100v-610h292v-88h-392z" />
    <glyph glyph-name="M" unicode="M" horiz-adv-x="944" 
d="M90 0v698h165l219 -580l215 580h165v-698h-100v604h-2l-231 -604h-98l-231 604h-2v-604h-100z" />
    <glyph glyph-name="N" unicode="N" horiz-adv-x="722" 
d="M88 0v698h136l308 -562h2v562h100v-698h-128l-316 574h-2v-574h-100z" />
    <glyph glyph-name="O" unicode="O" horiz-adv-x="778" 
d="M159 349q0 -114 58.5 -193.5t171.5 -79.5t171.5 79.5t58.5 193.5q0 73 -24.5 134t-78 100t-127.5 39t-127.5 -39t-78 -100t-24.5 -134zM53 349q0 159 90 260t246 101t246 -101t90 -260q0 -162 -89.5 -261.5t-246.5 -99.5t-246.5 99.5t-89.5 261.5z" />
    <glyph glyph-name="P" unicode="P" 
d="M183 610v-243h99q55 0 97.5 30t42.5 93q0 41 -26.5 69.5t-59.5 39.5t-68 11h-85zM83 0v698h183q56 0 101.5 -10.5t82.5 -34t57.5 -65t20.5 -99.5q0 -108 -70.5 -159t-176.5 -51h-98v-279h-100z" />
    <glyph glyph-name="Q" unicode="Q" horiz-adv-x="778" 
d="M159 349q0 -114 58.5 -193.5t171.5 -79.5t171.5 79.5t58.5 193.5q0 73 -24.5 134t-78 100t-127.5 39t-127.5 -39t-78 -100t-24.5 -134zM575 -129l-130 121l-27 -3q-9 -1 -29 -1q-157 0 -246.5 99.5t-89.5 261.5q0 159 90 260t246 101t246 -101t90 -260q0 -118 -49 -204.5
t-139 -126.5l162 -147h-124z" />
    <glyph glyph-name="R" unicode="R" horiz-adv-x="611" 
d="M83 0v698h171q47 0 82 -3.5t72.5 -15t61.5 -31.5t39.5 -55.5t15.5 -83.5q0 -62 -40.5 -105t-103.5 -54v-2q23 -9 37.5 -23.5t30.5 -46.5l132 -278h-114l-107 242q-11 25 -23 39.5t-28.5 20.5t-28.5 7t-37 1h-60v-310h-100zM183 610v-212h85q71 0 111 29t40 80
q0 48 -36 75.5t-104 27.5h-96z" />
    <glyph glyph-name="S" unicode="S" horiz-adv-x="500" 
d="M420 685l-14 -92q-74 29 -131 29q-50 0 -86 -21.5t-36 -71.5q0 -31 22 -55.5t55.5 -39.5t72.5 -36t72.5 -43.5t55.5 -63.5t22 -95q0 -106 -71 -157t-184 -51q-54 0 -143 29l10 93q83 -34 145 -34q51 0 94 29t43 85q0 43 -31 72.5t-75 49.5t-88 42.5t-75 64t-31 101.5
q0 90 63 140t161 50q78 0 149 -25z" />
    <glyph glyph-name="T" unicode="T" 
d="M228 0v610h-217v88h534v-88h-217v-610h-100z" />
    <glyph glyph-name="U" unicode="U" horiz-adv-x="722" 
d="M632 698v-409q0 -146 -70.5 -223.5t-200.5 -77.5t-200.5 77.5t-70.5 223.5v409h100v-396q0 -226 171 -226t171 226v396h100z" />
    <glyph glyph-name="V" unicode="V" horiz-adv-x="667" 
d="M661 698l-267 -698h-125l-263 698h112l215 -610h2l221 610h105z" />
    <glyph glyph-name="W" unicode="W" horiz-adv-x="1000" 
d="M213 0l-211 698h110l167 -598h2l149 598h142l151 -598h2l167 598h106l-215 -698h-129l-152 610h-2l-153 -610h-134z" />
    <glyph glyph-name="X" unicode="X" horiz-adv-x="667" 
d="M8 0l257 363l-234 335h120l186 -268l185 268h114l-235 -333l258 -365h-126l-206 296l-199 -296h-120z" />
    <glyph glyph-name="Y" unicode="Y" horiz-adv-x="667" 
d="M284 0v292l-273 406h117l208 -313l203 313h117l-272 -406v-292h-100z" />
    <glyph glyph-name="Z" unicode="Z" 
d="M32 0v90l362 520h-350v88h465v-90l-361 -520h367v-88h-483z" />
    <glyph glyph-name="bracketleft" unicode="[" horiz-adv-x="333" 
d="M95 -140v896h189v-70h-101v-756h101v-70h-189z" />
    <glyph glyph-name="backslash" unicode="\" horiz-adv-x="278" 
d="M215 -12l-240 722h88l240 -722h-88z" />
    <glyph glyph-name="bracketright" unicode="]" horiz-adv-x="333" 
d="M238 756v-896h-189v70h101v756h-101v70h189z" />
    <glyph glyph-name="asciicircum" unicode="^" horiz-adv-x="600" 
d="M60 294l199 404h82l199 -404h-90l-150 312l-150 -312h-90z" />
    <glyph glyph-name="underscore" unicode="_" horiz-adv-x="500" 
d="M0 -75h500v-50h-500v50z" />
    <glyph glyph-name="grave" unicode="`" horiz-adv-x="278" 
d="M116 725l89 -144h-67l-131 144h109z" />
    <glyph glyph-name="a" unicode="a" 
d="M109 394l-5 80q81 48 168 48q107 0 156 -52.5t49 -158.5v-211q0 -70 4 -100h-88v66h-2q-55 -78 -158 -78q-86 0 -136.5 39.5t-50.5 119.5q0 46 23 80t60 52.5t75.5 27t78.5 8.5q63 0 100 -2q0 68 -28.5 100.5t-97.5 32.5q-86 0 -148 -52zM383 198v45q-10 0 -30 1t-30 1
q-26 0 -50.5 -3t-56 -12t-51 -30t-19.5 -53q0 -38 29.5 -60.5t65.5 -22.5q68 0 105 37.5t37 96.5z" />
    <glyph glyph-name="b" unicode="b" horiz-adv-x="611" 
d="M80 0v750h94v-310h2q51 82 169 82q106 0 163 -74t57 -184q0 -115 -55.5 -195.5t-163.5 -80.5q-62 0 -107 25t-67 59h-2v-72h-90zM465 257q2 77 -33.5 133t-106.5 56q-72 0 -111.5 -57t-39.5 -135q0 -73 38.5 -131.5t111.5 -58.5q69 0 106 61.5t35 131.5z" />
    <glyph glyph-name="c" unicode="c" horiz-adv-x="444" 
d="M412 502l-8 -78q-53 22 -102 22q-75 0 -119.5 -57t-44.5 -134t43 -134t127 -57q57 0 101 29l7 -84q-46 -21 -118 -21q-113 0 -186.5 77.5t-73.5 189.5q0 117 72 192t188 75q65 0 114 -20z" />
    <glyph glyph-name="d" unicode="d" horiz-adv-x="611" 
d="M441 0v72h-2q-22 -34 -67 -59t-107 -25q-108 0 -163.5 80.5t-55.5 195.5q0 110 57 184t163 74q118 0 169 -82h2v310h94v-750h-90zM146 257q-2 -70 35 -131.5t106 -61.5q73 0 111.5 58.5t38.5 131.5q0 78 -39.5 135t-111.5 57q-71 0 -106.5 -55.5t-33.5 -133.5z" />
    <glyph glyph-name="e" unicode="e" 
d="M471 115v-94q-3 -1 -18 -6.5t-21.5 -8t-22.5 -7t-28.5 -6t-31.5 -3.5t-39 -2q-132 0 -198 73.5t-66 202.5q0 114 66 186t173 72q225 0 225 -288h-364q0 -74 49.5 -122t118.5 -48q42 0 89.5 17t67.5 34zM146 304h264q0 61 -34 101.5t-93 40.5q-63 0 -97 -42t-40 -100z" />
    <glyph glyph-name="f" unicode="f" horiz-adv-x="389" 
d="M141 0v434h-120v76h120v47q0 102 36.5 153.5t134.5 51.5q25 0 63 -6l-4 -76q-17 6 -45 6q-56 0 -73.5 -30.5t-17.5 -90.5v-55h135v-76h-135v-434h-94z" />
    <glyph glyph-name="g" unicode="g" horiz-adv-x="611" 
d="M531 510v-488q0 -244 -263 -244q-80 0 -183 35l10 87q56 -26 95 -36t89 -10q74 0 116 47t42 128v50h-2q-60 -79 -171 -79q-104 0 -161 72.5t-57 178.5q0 108 60 189.5t168 81.5q123 0 168 -88h2v76h87zM288 76q65 0 107 50t42 123q0 84 -38.5 140.5t-110.5 56.5
q-66 0 -104 -58.5t-38 -131.5q0 -75 39 -127.5t103 -52.5z" />
    <glyph glyph-name="h" unicode="h" horiz-adv-x="611" 
d="M80 0v750h94v-313h2q54 85 164 85q191 0 191 -219v-303h-94v264q0 92 -24 135t-84 47q-78 0 -116.5 -56.5t-38.5 -153.5v-236h-94z" />
    <glyph glyph-name="i" unicode="i" horiz-adv-x="278" 
d="M92 0v510h94v-510h-94zM192 730v-106h-106v106h106z" />
    <glyph glyph-name="j" unicode="j" horiz-adv-x="278" 
d="M-16 -218l3 81q18 -3 38 -3q32 0 49.5 29t17.5 79v542h94v-528q0 -25 -1 -41.5t-5 -43.5t-13.5 -45.5t-24.5 -36.5t-40.5 -27.5t-59.5 -9.5q-41 0 -58 4zM192 730v-106h-106v106h106z" />
    <glyph glyph-name="k" unicode="k" 
d="M80 0v750h94v-447l205 207h128l-237 -226l267 -284h-135l-228 262v-262h-94z" />
    <glyph glyph-name="l" unicode="l" horiz-adv-x="278" 
d="M92 0v750h94v-750h-94z" />
    <glyph glyph-name="m" unicode="m" horiz-adv-x="889" 
d="M79 0v510h88v-74h2q52 86 162 86q47 0 86.5 -25t58.5 -74q24 50 70 74.5t88 24.5q92 0 134.5 -52.5t42.5 -142.5v-327h-94v304q0 142 -91 142q-67 0 -100.5 -55t-33.5 -134v-257h-94v304q0 142 -91 142q-67 0 -100.5 -55t-33.5 -134v-257h-94z" />
    <glyph glyph-name="n" unicode="n" horiz-adv-x="611" 
d="M80 0v510h91v-81h2q21 43 67 68t100 25q191 0 191 -219v-303h-94v264q0 92 -24 135t-84 47q-78 0 -116.5 -56.5t-38.5 -153.5v-236h-94z" />
    <glyph glyph-name="o" unicode="o" horiz-adv-x="611" 
d="M46 255q0 117 72 192t188 75q115 0 187 -75t72 -192q0 -112 -73 -189.5t-186 -77.5t-186.5 77.5t-73.5 189.5zM146 255q0 -76 41 -133.5t119 -57.5q77 0 118 57.5t41 133.5q0 77 -43.5 134t-115.5 57t-116 -57t-44 -134z" />
    <glyph glyph-name="p" unicode="p" horiz-adv-x="611" 
d="M80 -210v720h90v-72h2q22 34 66.5 59t106.5 25q106 0 163 -74t57 -184q0 -115 -55.5 -195.5t-163.5 -80.5q-119 0 -170 82h-2v-280h-94zM465 257q2 77 -33.5 133t-106.5 56q-72 0 -111.5 -57t-39.5 -135q0 -73 38.5 -131.5t111.5 -58.5q69 0 106 61.5t35 131.5z" />
    <glyph glyph-name="q" unicode="q" horiz-adv-x="611" 
d="M531 510v-720h-94v277h-2q-22 -36 -68 -57.5t-102 -21.5q-108 0 -163.5 80.5t-55.5 195.5q0 110 57 184t163 74q62 0 106.5 -25.5t66.5 -59.5h2v73h90zM146 257q-2 -70 35 -131.5t106 -61.5q73 0 111.5 58.5t38.5 131.5q0 78 -39.5 135t-111.5 57q-71 0 -106.5 -55.5
t-33.5 -133.5z" />
    <glyph glyph-name="r" unicode="r" horiz-adv-x="389" 
d="M80 0v510h88v-79h2q19 40 56 65.5t77 25.5q27 0 62 -7v-84q-22 9 -52 9q-63 0 -101 -56t-38 -152v-232h-94z" />
    <glyph glyph-name="s" unicode="s" horiz-adv-x="389" 
d="M37 16l5 84q26 -17 60 -26.5t57 -9.5q38 0 67 17.5t29 55.5q0 25 -23 45t-55.5 35t-64.5 32t-55 46.5t-23 69.5q0 76 50 116.5t130 40.5q50 0 117 -20l-8 -82q-15 9 -48 17.5t-51 8.5q-38 0 -64 -16t-26 -46q0 -28 23 -48t55.5 -34t64.5 -30.5t55 -48t23 -76.5
q0 -77 -52 -118t-126 -41q-88 0 -140 28z" />
    <glyph glyph-name="t" unicode="t" horiz-adv-x="389" 
d="M351 510v-76h-135v-279q0 -43 22.5 -67t56.5 -24q36 0 64 18v-80q-49 -14 -80 -14q-75 0 -116 36.5t-41 111.5v298h-115v76h115v118l94 30v-148h135z" />
    <glyph glyph-name="u" unicode="u" horiz-adv-x="611" 
d="M531 510v-510h-91v81h-2q-21 -43 -67 -68t-100 -25q-191 0 -191 219v303h94v-264q0 -92 24 -135t84 -47q78 0 116.5 56.5t38.5 153.5v236h94z" />
    <glyph glyph-name="v" unicode="v" horiz-adv-x="500" 
d="M489 510l-183 -510h-112l-183 510h103l138 -416h2l141 416h94z" />
    <glyph glyph-name="w" unicode="w" horiz-adv-x="833" 
d="M821 510l-164 -510h-109l-132 428h-2l-129 -428h-109l-164 510h103l117 -422h2l130 422h111l128 -422h2l124 422h92z" />
    <glyph glyph-name="x" unicode="x" horiz-adv-x="500" 
d="M10 0l184 267l-166 243h117l111 -182l113 182h105l-164 -243l180 -267h-116l-126 200l-126 -200h-112z" />
    <glyph glyph-name="y" unicode="y" horiz-adv-x="500" 
d="M36 -215l6 77q24 -8 44 -8q29 0 52.5 18t35.5 42t18 42t6 24q0 3 -18 54l-173 476h103l137 -422h2l140 422h95l-188 -521q-10 -29 -13.5 -38t-14 -35.5t-17.5 -37t-19.5 -31t-24.5 -29.5t-28.5 -20t-36 -15.5t-42.5 -4.5q-24 0 -64 7z" />
    <glyph glyph-name="z" unicode="z" horiz-adv-x="500" 
d="M43 0v82l294 352h-280v76h389v-82l-294 -352h305v-76h-414z" />
    <glyph glyph-name="braceleft" unicode="{" horiz-adv-x="333" 
d="M314 756v-70h-53q-50 0 -50 -76v-181q0 -31 -10.5 -55t-26.5 -36.5t-29.5 -19.5t-25.5 -9v-2q12 -1 25.5 -7t29.5 -18.5t26.5 -38t10.5 -59.5v-178q0 -76 50 -76h53v-70h-78q-41 0 -77 34t-36 92v182q0 48 -26.5 76.5t-59.5 28.5v70q33 0 59.5 27.5t26.5 72.5v187
q0 58 36 92t77 34h78z" />
    <glyph glyph-name="bar" unicode="|" horiz-adv-x="222" 
d="M67 750h88v-1000h-88v1000z" />
    <glyph glyph-name="braceright" unicode="}" horiz-adv-x="333" 
d="M19 -140v70h53q50 0 50 76v181q0 31 10.5 55t26.5 36.5t29.5 19.5t25.5 9v2q-12 1 -25.5 7t-29.5 18.5t-26.5 38t-10.5 59.5v178q0 76 -50 76h-53v70h78q41 0 77 -34t36 -92v-182q0 -48 26.5 -76.5t59.5 -28.5v-70q-33 0 -59.5 -27.5t-26.5 -72.5v-187q0 -58 -36 -92
t-77 -34h-78z" />
    <glyph glyph-name="asciitilde" unicode="~" horiz-adv-x="600" 
d="M495 333l36 -70q-45 -85 -125 -85q-42 0 -111 31q-8 3 -27 12t-28.5 13t-23.5 8t-23 4q-19 0 -36.5 -12.5t-26.5 -24.5t-25 -36l-36 70q45 85 125 85q42 0 111 -31q8 -3 27 -12t28.5 -13t23.5 -8t23 -4q19 0 36.5 12.5t26.5 24.5t25 36z" />
    <glyph glyph-name="uni00A0" unicode="&#xa0;" horiz-adv-x="278" 
 />
    <glyph glyph-name="exclamdown" unicode="&#xa1;" horiz-adv-x="389" 
d="M238 314l13 -502h-112l13 502h86zM139 398v112h112v-112h-112z" />
    <glyph glyph-name="cent" unicode="&#xa2;" 
d="M244 109l97 336q-70 -5 -111 -60.5t-41 -129.5q0 -92 55 -146zM174 -133l45 156q-61 34 -95.5 96t-34.5 136q0 117 72 192t188 75q9 0 14 -1l33 113h57l-35 -119q32 -7 45 -13l-8 -78q-30 13 -58 17l-105 -365q33 -12 67 -12q57 0 101 29l7 -84q-45 -21 -118 -21
q-43 0 -79 12l-39 -133h-57z" />
    <glyph glyph-name="sterling" unicode="&#xa3;" 
d="M59 0v88h91v260h-79v58h79v56q0 111 63.5 179.5t178.5 68.5q61 0 118 -19l-8 -93q-54 24 -100 24q-76 0 -114 -44t-38 -123v-49h161v-58h-161v-260h247v-88h-438z" />
    <glyph glyph-name="currency" unicode="&#xa4;" 
d="M24 146l56 57q-50 59 -50 146q0 94 50 148l-56 54l51 52l55 -55q60 49 148 49q87 0 150 -49l54 55l50 -52l-54 -54q48 -54 48 -148q0 -89 -48 -146l54 -57l-50 -51l-54 57q-59 -51 -150 -51t-148 51l-55 -57zM118 349q0 -69 47 -117.5t113 -48.5q68 0 114 49.5t46 116.5
t-46.5 116.5t-113.5 49.5t-113.5 -49t-46.5 -117z" />
    <glyph glyph-name="yen" unicode="&#xa5;" 
d="M229 0v162h-141v58h141v72l-8 16h-133v58h101l-183 332h111l164 -313l158 313h111l-181 -332h101v-58h-133l-8 -16v-72h141v-58h-141v-162h-100z" />
    <glyph glyph-name="brokenbar" unicode="&#xa6;" horiz-adv-x="222" 
d="M67 675h88v-350h-88v350zM67 175h88v-350h-88v350z" />
    <glyph glyph-name="section" unicode="&#xa7;" 
d="M89 -99l9 92q67 -35 165 -35q48 0 83.5 23.5t35.5 67.5q0 29 -30.5 48.5t-74.5 34t-88 32t-74.5 53.5t-30.5 88q0 80 73 124q-69 38 -69 119q0 77 64 119.5t146 42.5q68 0 144 -19l-9 -91q-63 28 -122 28q-30 0 -56 -5t-49.5 -23t-23.5 -48q0 -33 31 -55t75 -36
t88.5 -31.5t75.5 -52t31 -85.5q0 -42 -17 -69t-54 -57q64 -41 64 -114q0 -60 -37 -101.5t-86 -58t-103 -16.5q-91 0 -161 25zM172 324q0 -28 23 -50.5t49 -33.5t65 -24t50 -18q36 42 36 75q0 38 -31.5 61.5t-87 42t-67.5 25.5q-37 -28 -37 -78z" />
    <glyph glyph-name="dieresis" unicode="&#xa8;" horiz-adv-x="278" 
d="M10 588v100h94v-100h-94zM174 588v100h94v-100h-94z" />
    <glyph glyph-name="copyright" unicode="&#xa9;" horiz-adv-x="800" 
d="M509 285h73q-12 -73 -60 -114.5t-113 -41.5q-92 0 -148.5 62.5t-56.5 157.5q0 96 54.5 157t147.5 61q68 0 117.5 -39.5t58.5 -110.5h-73q-7 37 -35 58.5t-67 21.5q-61 0 -94 -40.5t-33 -105.5q0 -67 35 -109.5t94 -42.5q41 0 68 23t32 63zM39 349q0 149 106 255t255 106
t255 -106t106 -255t-106 -255t-255 -106t-255 106t-106 255zM127 349q0 -125 79 -208t194 -83t194 83t79 208t-79 208t-194 83t-194 -83t-79 -208z" />
    <glyph glyph-name="ordfeminine" unicode="&#xaa;" horiz-adv-x="361" 
d="M66 619l-3 63q55 28 117 28q77 0 115.5 -27t38.5 -100v-128q0 -15 1 -28.5t1.5 -20.5t0.5 -10h-84v38h-2q-29 -46 -98 -46q-48 0 -89 22.5t-41 73.5q0 30 17.5 51.5t45 32t53.5 15t52 4.5q41 0 61 -2q0 67 -78 67q-63 0 -108 -33zM212 535q-107 0 -107 -54q0 -17 18 -26
t41 -9q88 0 88 60v27q-3 0 -16.5 1t-23.5 1z" />
    <glyph glyph-name="guillemotleft" unicode="&#xab;" 
d="M194 67l-143 202l143 202h88l-130 -202l130 -202h-88zM396 67l-143 202l143 202h88l-130 -202l130 -202h-88z" />
    <glyph glyph-name="logicalnot" unicode="&#xac;" horiz-adv-x="600" 
d="M47 314v88h506v-298h-88v210h-418z" />
    <glyph glyph-name="uni00AD" unicode="&#xad;" horiz-adv-x="333" 
d="M38 231v76h257v-76h-257z" />
    <glyph glyph-name="registered" unicode="&#xae;" horiz-adv-x="800" 
d="M400 -12q-149 0 -255 106t-106 255t106 255t255 106t255 -106t106 -255t-106 -255t-255 -106zM400 58q115 0 194 83t79 208t-79 208t-194 83t-194 -83t-79 -208t79 -208t194 -83zM261 146v409h152q75 0 113 -28.5t38 -91.5q0 -100 -107 -110l110 -179h-78l-106 176h-46
v-176h-76zM337 497v-117h67q41 0 62.5 12t21.5 49q0 56 -83 56h-68z" />
    <glyph glyph-name="macron" unicode="&#xaf;" horiz-adv-x="278" 
d="M-9 615v58h296v-58h-296z" />
    <glyph glyph-name="degree" unicode="&#xb0;" horiz-adv-x="400" 
d="M57 567q0 59 42 101t101 42t101 -42t42 -101t-42 -101t-101 -42t-101 42t-42 101zM121 567q0 -33 23 -56t56 -23t56 23t23 56t-23 56t-56 23t-56 -23t-23 -56z" />
    <glyph glyph-name="plusminus" unicode="&#xb1;" horiz-adv-x="600" 
d="M47 271v88h209v147h88v-147h209v-88h-209v-147h-88v147h-209zM47 0v88h506v-88h-506z" />
    <glyph glyph-name="twosuperior" unicode="&#xb2;" horiz-adv-x="361" 
d="M31 282v76q3 3 28.5 23t43.5 35t45 40t44 45t30 43t13 41q0 27 -25 41t-55 14q-56 0 -104 -29l-6 74q59 25 125 25q64 0 108.5 -30t44.5 -91q0 -55 -72.5 -133t-119.5 -102v-2h199v-70h-299z" />
    <glyph glyph-name="threesuperior" unicode="&#xb3;" horiz-adv-x="361" 
d="M93 466v70h46q34 0 66.5 15t32.5 42q0 25 -28 36t-61 11q-46 0 -97 -22l-4 72q55 20 123 20q65 0 110 -28.5t45 -84.5q0 -39 -29.5 -63t-70.5 -32v-2q47 -6 75.5 -33t28.5 -72q0 -119 -185 -119q-55 0 -113 16l10 76q8 -8 36.5 -15t57.5 -7q23 0 44.5 4t41.5 16.5
t20 32.5q0 32 -31.5 49.5t-68.5 17.5h-49z" />
    <glyph glyph-name="acute" unicode="&#xb4;" horiz-adv-x="278" 
d="M73 581l89 144h109l-131 -144h-67z" />
    <glyph glyph-name="mu" unicode="&#xb5;" horiz-adv-x="611" 
d="M531 510v-510h-91v81h-2q-21 -43 -67 -68t-100 -25q-61 0 -97 20v-218h-94v720h94v-264q0 -92 24 -135t84 -47q78 0 116.5 56.5t38.5 153.5v236h94z" />
    <glyph glyph-name="paragraph" unicode="&#xb6;" horiz-adv-x="600" 
d="M236 -112v445q-99 0 -157.5 49.5t-58.5 129.5q0 186 236 186h271v-810h-88v740h-115v-740h-88z" />
    <glyph glyph-name="periodcentered" unicode="&#xb7;" horiz-adv-x="278" 
d="M80 304q1 24 18.5 41t41.5 17t41.5 -17t16.5 -41q1 -24 -16.5 -42t-41.5 -18t-41.5 18t-18.5 42z" />
    <glyph glyph-name="cedilla" unicode="&#xb8;" horiz-adv-x="278" 
d="M200 0h47l-46 -60l2 -2q13 5 30 5q35 0 59 -20t24 -53q0 -46 -40 -69t-91 -23q-47 0 -84 21l18 34q37 -15 65 -15q23 0 39.5 10.5t16.5 35.5q0 19 -13.5 29t-32.5 10t-41 -8l-17 19z" />
    <glyph glyph-name="onesuperior" unicode="&#xb9;" horiz-adv-x="361" 
d="M154 282v346l-70 -55l-34 46l111 85h81v-422h-88z" />
    <glyph glyph-name="ordmasculine" unicode="&#xba;" horiz-adv-x="397" 
d="M198 388q-76 0 -124 46.5t-48 114.5q0 71 47.5 116t124.5 45q78 0 125 -45t47 -116q0 -68 -48 -114.5t-124 -46.5zM108 549q0 -103 90 -103t90 103q0 45 -22.5 74t-67.5 29q-44 0 -67 -29t-23 -74z" />
    <glyph glyph-name="guillemotright" unicode="&#xbb;" 
d="M362 471l143 -202l-143 -202h-88l130 202l-130 202h88zM160 471l143 -202l-143 -202h-88l130 202l-130 202h88z" />
    <glyph glyph-name="onequarter" unicode="&#xbc;" horiz-adv-x="834" 
d="M661 153v199h-2l-128 -199h130zM661 0v83h-212v61l184 278h116v-269h52v-70h-52v-83h-88zM143 -22l433 742h72l-433 -742h-72zM137 282v346l-70 -55l-34 46l111 85h81v-422h-88z" />
    <glyph glyph-name="onehalf" unicode="&#xbd;" horiz-adv-x="834" 
d="M112 -22l433 742h72l-433 -742h-72zM137 282v346l-70 -55l-34 46l111 85h81v-422h-88zM502 0v76q3 3 28.5 23t43.5 35t45 40t44 45t30 43t13 41q0 27 -25 41t-55 14q-56 0 -104 -29l-6 74q59 25 125 25q64 0 108.5 -30t44.5 -91q0 -55 -72.5 -133t-119.5 -102v-2h199v-70
h-299z" />
    <glyph glyph-name="threequarters" unicode="&#xbe;" horiz-adv-x="834" 
d="M661 153v199h-2l-128 -199h130zM661 0v83h-212v61l184 278h116v-269h52v-70h-52v-83h-88zM186 -22l433 742h72l-433 -742h-72zM93 466v70h46q34 0 66.5 15t32.5 42q0 25 -28 36t-61 11q-46 0 -97 -22l-4 72q55 20 123 20q65 0 110 -28.5t45 -84.5q0 -39 -29.5 -63
t-70.5 -32v-2q47 -6 75.5 -33t28.5 -72q0 -119 -185 -119q-55 0 -113 16l10 76q8 -8 36.5 -15t57.5 -7q23 0 44.5 4t41.5 16.5t20 32.5q0 32 -31.5 49.5t-68.5 17.5h-49z" />
    <glyph glyph-name="questiondown" unicode="&#xbf;" horiz-adv-x="500" 
d="M296 314v-21q0 -47 -13 -77t-49 -72q-3 -3 -14 -15.5t-15 -17.5t-13.5 -17t-13.5 -19t-10.5 -19t-9.5 -21.5t-5.5 -21.5t-2.5 -24q0 -50 35 -75.5t86 -25.5q93 0 148 40l7 -95q-76 -33 -166 -33q-88 0 -152 48.5t-64 133.5q0 47 20 85.5t61 86t56 69.5q21 31 21 73v18h94
zM305 510v-112h-112v112h112z" />
    <glyph glyph-name="Agrave" unicode="&#xc0;" horiz-adv-x="722" 
d="M12 0l298 698h105l295 -698h-109l-71 176h-342l-71 -176h-105zM498 258l-139 346l-139 -346h278zM338 893l89 -144h-67l-131 144h109z" />
    <glyph glyph-name="Aacute" unicode="&#xc1;" horiz-adv-x="722" 
d="M12 0l298 698h105l295 -698h-109l-71 176h-342l-71 -176h-105zM498 258l-139 346l-139 -346h278zM295 749l89 144h109l-131 -144h-67z" />
    <glyph glyph-name="Acircumflex" unicode="&#xc2;" horiz-adv-x="722" 
d="M12 0l298 698h105l295 -698h-109l-71 176h-342l-71 -176h-105zM498 258l-139 346l-139 -346h278zM216 749l99 144h91l100 -144h-80l-66 98l-65 -98h-79z" />
    <glyph glyph-name="Atilde" unicode="&#xc3;" horiz-adv-x="722" 
d="M12 0l298 698h105l295 -698h-109l-71 176h-342l-71 -176h-105zM498 258l-139 346l-139 -346h278zM237 754h-46q16 112 94 112q27 0 80.5 -23t73.5 -23q21 -1 32 12.5t14 33.5h46q-16 -112 -94 -112q-27 0 -80.5 23t-73.5 23q-21 1 -32 -12.5t-14 -33.5z" />
    <glyph glyph-name="Adieresis" unicode="&#xc4;" horiz-adv-x="722" 
d="M12 0l298 698h105l295 -698h-109l-71 176h-342l-71 -176h-105zM498 258l-139 346l-139 -346h278zM232 756v100h94v-100h-94zM396 756v100h94v-100h-94z" />
    <glyph glyph-name="Aring" unicode="&#xc5;" horiz-adv-x="722" 
d="M12 0l298 698h105l295 -698h-109l-71 176h-342l-71 -176h-105zM498 258l-139 346l-139 -346h278zM361 935q41 0 71.5 -30.5t30.5 -71.5t-30.5 -71.5t-71.5 -30.5t-71.5 30t-30.5 72t30 72t72 30zM361 895q-25 0 -43.5 -18.5t-18.5 -43.5t18.5 -43.5t43.5 -18.5
q24 0 43 19t19 43q0 25 -18.5 43.5t-43.5 18.5z" />
    <glyph glyph-name="AE" unicode="&#xc6;" horiz-adv-x="944" 
d="M2 0l422 698h439v-88h-277l13 -204h246v-88h-241l14 -230h255v-88h-347l-11 176h-297l-105 -176h-111zM510 258l-22 370h-2l-220 -370h244z" />
    <glyph glyph-name="Ccedilla" unicode="&#xc7;" horiz-adv-x="611" 
d="M579 680l-8 -97q-66 39 -144 39q-120 0 -194 -77t-74 -196q0 -121 76 -197t187 -76q95 0 152 34l6 -97q-60 -25 -159 -25q-15 0 -23 2l-38 -50l2 -2q13 5 30 5q35 0 59 -20t24 -53q0 -46 -40 -69t-91 -23q-46 0 -84 21l18 34q37 -15 65 -15q23 0 39.5 10.5t16.5 35.5
q0 19 -13.5 29t-32.5 10t-41 -8l-17 19l58 79q-138 20 -219 116t-81 243q0 160 104 259t265 99q89 0 157 -30z" />
    <glyph glyph-name="Egrave" unicode="&#xc8;" 
d="M94 0v698h391v-88h-291v-204h265v-88h-265v-230h291v-88h-391zM255 893l89 -144h-67l-131 144h109z" />
    <glyph glyph-name="Eacute" unicode="&#xc9;" 
d="M94 0v698h391v-88h-291v-204h265v-88h-265v-230h291v-88h-391zM212 749l89 144h109l-131 -144h-67z" />
    <glyph glyph-name="Ecircumflex" unicode="&#xca;" 
d="M94 0v698h391v-88h-291v-204h265v-88h-265v-230h291v-88h-391zM133 749l99 144h91l100 -144h-80l-66 98l-65 -98h-79z" />
    <glyph glyph-name="Edieresis" unicode="&#xcb;" 
d="M94 0v698h391v-88h-291v-204h265v-88h-265v-230h291v-88h-391zM149 756v100h94v-100h-94zM313 756v100h94v-100h-94z" />
    <glyph glyph-name="Igrave" unicode="&#xcc;" horiz-adv-x="278" 
d="M89 0v698h100v-698h-100zM116 893l89 -144h-67l-131 144h109z" />
    <glyph glyph-name="Iacute" unicode="&#xcd;" horiz-adv-x="278" 
d="M89 0v698h100v-698h-100zM73 749l89 144h109l-131 -144h-67z" />
    <glyph glyph-name="Icircumflex" unicode="&#xce;" horiz-adv-x="278" 
d="M89 0v698h100v-698h-100zM-6 749l99 144h91l100 -144h-80l-66 98l-65 -98h-79z" />
    <glyph glyph-name="Idieresis" unicode="&#xcf;" horiz-adv-x="278" 
d="M89 0v698h100v-698h-100zM10 756v100h94v-100h-94zM174 756v100h94v-100h-94z" />
    <glyph glyph-name="Eth" unicode="&#xd0;" horiz-adv-x="722" 
d="M183 610v-204h183v-64h-183v-254h105q267 0 267 263q0 113 -71 186t-186 73h-115zM83 0v342h-68v64h68v292h206q160 0 266 -93t106 -250q0 -173 -98.5 -264t-273.5 -91h-206z" />
    <glyph glyph-name="Ntilde" unicode="&#xd1;" horiz-adv-x="722" 
d="M88 0v698h136l308 -562h2v562h100v-698h-128l-316 574h-2v-574h-100zM237 754h-46q16 112 94 112q27 0 80.5 -23t73.5 -23q21 -1 32 12.5t14 33.5h46q-16 -112 -94 -112q-27 0 -80.5 23t-73.5 23q-21 1 -32 -12.5t-14 -33.5z" />
    <glyph glyph-name="Ograve" unicode="&#xd2;" horiz-adv-x="778" 
d="M159 349q0 -114 58.5 -193.5t171.5 -79.5t171.5 79.5t58.5 193.5q0 73 -24.5 134t-78 100t-127.5 39t-127.5 -39t-78 -100t-24.5 -134zM53 349q0 159 90 260t246 101t246 -101t90 -260q0 -162 -89.5 -261.5t-246.5 -99.5t-246.5 99.5t-89.5 261.5zM366 893l89 -144h-67
l-131 144h109z" />
    <glyph glyph-name="Oacute" unicode="&#xd3;" horiz-adv-x="778" 
d="M159 349q0 -114 58.5 -193.5t171.5 -79.5t171.5 79.5t58.5 193.5q0 73 -24.5 134t-78 100t-127.5 39t-127.5 -39t-78 -100t-24.5 -134zM53 349q0 159 90 260t246 101t246 -101t90 -260q0 -162 -89.5 -261.5t-246.5 -99.5t-246.5 99.5t-89.5 261.5zM323 749l89 144h109
l-131 -144h-67z" />
    <glyph glyph-name="Ocircumflex" unicode="&#xd4;" horiz-adv-x="778" 
d="M159 349q0 -114 58.5 -193.5t171.5 -79.5t171.5 79.5t58.5 193.5q0 73 -24.5 134t-78 100t-127.5 39t-127.5 -39t-78 -100t-24.5 -134zM53 349q0 159 90 260t246 101t246 -101t90 -260q0 -162 -89.5 -261.5t-246.5 -99.5t-246.5 99.5t-89.5 261.5zM244 749l99 144h91
l100 -144h-80l-66 98l-65 -98h-79z" />
    <glyph glyph-name="Otilde" unicode="&#xd5;" horiz-adv-x="778" 
d="M159 349q0 -114 58.5 -193.5t171.5 -79.5t171.5 79.5t58.5 193.5q0 73 -24.5 134t-78 100t-127.5 39t-127.5 -39t-78 -100t-24.5 -134zM53 349q0 159 90 260t246 101t246 -101t90 -260q0 -162 -89.5 -261.5t-246.5 -99.5t-246.5 99.5t-89.5 261.5zM265 754h-46
q16 112 94 112q27 0 80.5 -23t73.5 -23q21 -1 32 12.5t14 33.5h46q-16 -112 -94 -112q-27 0 -80.5 23t-73.5 23q-21 1 -32 -12.5t-14 -33.5z" />
    <glyph glyph-name="Odieresis" unicode="&#xd6;" horiz-adv-x="778" 
d="M159 349q0 -114 58.5 -193.5t171.5 -79.5t171.5 79.5t58.5 193.5q0 73 -24.5 134t-78 100t-127.5 39t-127.5 -39t-78 -100t-24.5 -134zM53 349q0 159 90 260t246 101t246 -101t90 -260q0 -162 -89.5 -261.5t-246.5 -99.5t-246.5 99.5t-89.5 261.5zM260 756v100h94v-100
h-94zM424 756v100h94v-100h-94z" />
    <glyph glyph-name="multiply" unicode="&#xd7;" horiz-adv-x="600" 
d="M238 253l-170 170l62 62l170 -171l170 171l62 -62l-171 -170l171 -170l-62 -62l-170 171l-170 -171l-62 62z" />
    <glyph glyph-name="Oslash" unicode="&#xd8;" horiz-adv-x="778" 
d="M214 160l318 412q-60 51 -143 50q-74 0 -127.5 -39t-78 -100t-24.5 -134q0 -115 55 -189zM94 5l57 74q-98 98 -98 270q0 159 90 260t246 101q116 0 202 -62l53 69l36 -28l-54 -71q99 -101 99 -269q0 -162 -89.5 -261.5t-246.5 -99.5q-121 0 -203 61l-54 -70zM563 537
l-317 -411q56 -50 143 -50q113 0 171.5 79.5t58.5 193.5q0 112 -56 188z" />
    <glyph glyph-name="Ugrave" unicode="&#xd9;" horiz-adv-x="722" 
d="M632 698v-409q0 -146 -70.5 -223.5t-200.5 -77.5t-200.5 77.5t-70.5 223.5v409h100v-396q0 -226 171 -226t171 226v396h100zM338 893l89 -144h-67l-131 144h109z" />
    <glyph glyph-name="Uacute" unicode="&#xda;" horiz-adv-x="722" 
d="M632 698v-409q0 -146 -70.5 -223.5t-200.5 -77.5t-200.5 77.5t-70.5 223.5v409h100v-396q0 -226 171 -226t171 226v396h100zM295 749l89 144h109l-131 -144h-67z" />
    <glyph glyph-name="Ucircumflex" unicode="&#xdb;" horiz-adv-x="722" 
d="M632 698v-409q0 -146 -70.5 -223.5t-200.5 -77.5t-200.5 77.5t-70.5 223.5v409h100v-396q0 -226 171 -226t171 226v396h100zM216 749l99 144h91l100 -144h-80l-66 98l-65 -98h-79z" />
    <glyph glyph-name="Udieresis" unicode="&#xdc;" horiz-adv-x="722" 
d="M632 698v-409q0 -146 -70.5 -223.5t-200.5 -77.5t-200.5 77.5t-70.5 223.5v409h100v-396q0 -226 171 -226t171 226v396h100zM232 756v100h94v-100h-94zM396 756v100h94v-100h-94z" />
    <glyph glyph-name="Yacute" unicode="&#xdd;" horiz-adv-x="667" 
d="M284 0v292l-273 406h117l208 -313l203 313h117l-272 -406v-292h-100zM268 749l89 144h109l-131 -144h-67z" />
    <glyph glyph-name="Thorn" unicode="&#xde;" 
d="M83 0v698h100v-102h83q56 0 101.5 -10.5t82.5 -34t57.5 -65t20.5 -99.5q0 -108 -70.5 -159t-176.5 -51h-98v-177h-100zM183 508v-243h99q55 0 97.5 30t42.5 93q0 41 -26.5 69.5t-59.5 39.5t-68 11h-85z" />
    <glyph glyph-name="germandbls" unicode="&#xdf;" horiz-adv-x="611" 
d="M174 0h-94v474q0 142 57.5 215t187.5 73q79 0 141 -52t62 -144q0 -127 -117 -163v-2q68 -8 108.5 -61.5t40.5 -122.5q0 -96 -59.5 -159.5t-161.5 -63.5q-49 0 -97 14v79q39 -17 79 -17q60 0 99.5 38t39.5 105q0 81 -48.5 112.5t-139.5 31.5v76q76 0 116 29t40 101
q0 51 -30 87t-82 36q-40 0 -69.5 -17.5t-44.5 -47.5t-21.5 -62.5t-6.5 -69.5v-489z" />
    <glyph glyph-name="agrave" unicode="&#xe0;" 
d="M109 394l-5 80q81 48 168 48q107 0 156 -52.5t49 -158.5v-211q0 -70 4 -100h-88v66h-2q-55 -78 -158 -78q-86 0 -136.5 39.5t-50.5 119.5q0 46 23 80t60 52.5t75.5 27t78.5 8.5q63 0 100 -2q0 68 -28.5 100.5t-97.5 32.5q-86 0 -148 -52zM383 198v45q-10 0 -30 1t-30 1
q-26 0 -50.5 -3t-56 -12t-51 -30t-19.5 -53q0 -38 29.5 -60.5t65.5 -22.5q68 0 105 37.5t37 96.5zM255 725l89 -144h-67l-131 144h109z" />
    <glyph glyph-name="aacute" unicode="&#xe1;" 
d="M109 394l-5 80q81 48 168 48q107 0 156 -52.5t49 -158.5v-211q0 -70 4 -100h-88v66h-2q-55 -78 -158 -78q-86 0 -136.5 39.5t-50.5 119.5q0 46 23 80t60 52.5t75.5 27t78.5 8.5q63 0 100 -2q0 68 -28.5 100.5t-97.5 32.5q-86 0 -148 -52zM383 198v45q-10 0 -30 1t-30 1
q-26 0 -50.5 -3t-56 -12t-51 -30t-19.5 -53q0 -38 29.5 -60.5t65.5 -22.5q68 0 105 37.5t37 96.5zM212 581l89 144h109l-131 -144h-67z" />
    <glyph glyph-name="acircumflex" unicode="&#xe2;" 
d="M109 394l-5 80q81 48 168 48q107 0 156 -52.5t49 -158.5v-211q0 -70 4 -100h-88v66h-2q-55 -78 -158 -78q-86 0 -136.5 39.5t-50.5 119.5q0 46 23 80t60 52.5t75.5 27t78.5 8.5q63 0 100 -2q0 68 -28.5 100.5t-97.5 32.5q-86 0 -148 -52zM383 198v45q-10 0 -30 1t-30 1
q-26 0 -50.5 -3t-56 -12t-51 -30t-19.5 -53q0 -38 29.5 -60.5t65.5 -22.5q68 0 105 37.5t37 96.5zM133 581l99 144h91l100 -144h-80l-66 98l-65 -98h-79z" />
    <glyph glyph-name="atilde" unicode="&#xe3;" 
d="M109 394l-5 80q81 48 168 48q107 0 156 -52.5t49 -158.5v-211q0 -70 4 -100h-88v66h-2q-55 -78 -158 -78q-86 0 -136.5 39.5t-50.5 119.5q0 46 23 80t60 52.5t75.5 27t78.5 8.5q63 0 100 -2q0 68 -28.5 100.5t-97.5 32.5q-86 0 -148 -52zM383 198v45q-10 0 -30 1t-30 1
q-26 0 -50.5 -3t-56 -12t-51 -30t-19.5 -53q0 -38 29.5 -60.5t65.5 -22.5q68 0 105 37.5t37 96.5zM154 586h-46q16 112 94 112q27 0 80.5 -23t73.5 -23q21 -1 32 12.5t14 33.5h46q-16 -112 -94 -112q-27 0 -80.5 23t-73.5 23q-21 1 -32 -12.5t-14 -33.5z" />
    <glyph glyph-name="adieresis" unicode="&#xe4;" 
d="M109 394l-5 80q81 48 168 48q107 0 156 -52.5t49 -158.5v-211q0 -70 4 -100h-88v66h-2q-55 -78 -158 -78q-86 0 -136.5 39.5t-50.5 119.5q0 46 23 80t60 52.5t75.5 27t78.5 8.5q63 0 100 -2q0 68 -28.5 100.5t-97.5 32.5q-86 0 -148 -52zM383 198v45q-10 0 -30 1t-30 1
q-26 0 -50.5 -3t-56 -12t-51 -30t-19.5 -53q0 -38 29.5 -60.5t65.5 -22.5q68 0 105 37.5t37 96.5zM149 588v100h94v-100h-94zM313 588v100h94v-100h-94z" />
    <glyph glyph-name="aring" unicode="&#xe5;" 
d="M109 394l-5 80q81 48 168 48q107 0 156 -52.5t49 -158.5v-211q0 -70 4 -100h-88v66h-2q-55 -78 -158 -78q-86 0 -136.5 39.5t-50.5 119.5q0 46 23 80t60 52.5t75.5 27t78.5 8.5q63 0 100 -2q0 68 -28.5 100.5t-97.5 32.5q-86 0 -148 -52zM383 198v45q-10 0 -30 1t-30 1
q-26 0 -50.5 -3t-56 -12t-51 -30t-19.5 -53q0 -38 29.5 -60.5t65.5 -22.5q68 0 105 37.5t37 96.5zM278 767q41 0 71.5 -30.5t30.5 -71.5t-30.5 -71.5t-71.5 -30.5t-71.5 30t-30.5 72t30 72t72 30zM278 727q-25 0 -43.5 -18.5t-18.5 -43.5t18.5 -43.5t43.5 -18.5q24 0 43 19
t19 43q0 25 -18.5 43.5t-43.5 18.5z" />
    <glyph glyph-name="ae" unicode="&#xe6;" horiz-adv-x="889" 
d="M107 394l-5 79q77 49 169 49q56 0 103.5 -22t72.5 -67q50 89 177 89q62 0 107.5 -23.5t70 -65.5t35.5 -91t11 -108h-361q0 -71 47.5 -120.5t119.5 -49.5q75 0 141 53v-95q-75 -34 -146 -34q-75 0 -136 28t-84 91h-2q-15 -57 -69 -88t-120 -31q-77 0 -137 44.5t-60 118.5
q0 50 25 84.5t66 50.5t78.5 22.5t76.5 6.5q30 0 64 -2.5t42 -2.5q0 70 -39.5 103t-104.5 33q-70 0 -142 -52zM141 148q0 -40 29.5 -62t70.5 -22q66 0 109 52.5t43 125.5q-4 0 -34 1.5t-56 1.5q-25 0 -48.5 -3.5t-51.5 -12.5t-45 -30t-17 -51zM487 304h261q0 54 -35 98
t-90 44q-60 0 -98 -41t-38 -101z" />
    <glyph glyph-name="ccedilla" unicode="&#xe7;" horiz-adv-x="444" 
d="M412 502l-8 -78q-53 22 -102 22q-75 0 -119.5 -57t-44.5 -134t43 -134t127 -57q57 0 101 29l7 -84q-46 -21 -118 -21h-4l-37 -48l2 -2q13 5 30 5q35 0 59 -20t24 -53q0 -46 -40 -69t-91 -23q-47 0 -84 21l18 34q37 -15 65 -15q23 0 39.5 10.5t16.5 35.5q0 19 -13.5 29
t-32.5 10t-41 -8l-17 19l59 79q-95 16 -154 89.5t-59 172.5q0 117 72 192t188 75q65 0 114 -20z" />
    <glyph glyph-name="egrave" unicode="&#xe8;" 
d="M471 115v-94q-3 -1 -18 -6.5t-21.5 -8t-22.5 -7t-28.5 -6t-31.5 -3.5t-39 -2q-132 0 -198 73.5t-66 202.5q0 114 66 186t173 72q225 0 225 -288h-364q0 -74 49.5 -122t118.5 -48q42 0 89.5 17t67.5 34zM146 304h264q0 61 -34 101.5t-93 40.5q-63 0 -97 -42t-40 -100z
M255 725l89 -144h-67l-131 144h109z" />
    <glyph glyph-name="eacute" unicode="&#xe9;" 
d="M471 115v-94q-3 -1 -18 -6.5t-21.5 -8t-22.5 -7t-28.5 -6t-31.5 -3.5t-39 -2q-132 0 -198 73.5t-66 202.5q0 114 66 186t173 72q225 0 225 -288h-364q0 -74 49.5 -122t118.5 -48q42 0 89.5 17t67.5 34zM146 304h264q0 61 -34 101.5t-93 40.5q-63 0 -97 -42t-40 -100z
M212 581l89 144h109l-131 -144h-67z" />
    <glyph glyph-name="ecircumflex" unicode="&#xea;" 
d="M471 115v-94q-3 -1 -18 -6.5t-21.5 -8t-22.5 -7t-28.5 -6t-31.5 -3.5t-39 -2q-132 0 -198 73.5t-66 202.5q0 114 66 186t173 72q225 0 225 -288h-364q0 -74 49.5 -122t118.5 -48q42 0 89.5 17t67.5 34zM146 304h264q0 61 -34 101.5t-93 40.5q-63 0 -97 -42t-40 -100z
M133 581l99 144h91l100 -144h-80l-66 98l-65 -98h-79z" />
    <glyph glyph-name="edieresis" unicode="&#xeb;" 
d="M471 115v-94q-3 -1 -18 -6.5t-21.5 -8t-22.5 -7t-28.5 -6t-31.5 -3.5t-39 -2q-132 0 -198 73.5t-66 202.5q0 114 66 186t173 72q225 0 225 -288h-364q0 -74 49.5 -122t118.5 -48q42 0 89.5 17t67.5 34zM146 304h264q0 61 -34 101.5t-93 40.5q-63 0 -97 -42t-40 -100z
M149 588v100h94v-100h-94zM313 588v100h94v-100h-94z" />
    <glyph glyph-name="igrave" unicode="&#xec;" horiz-adv-x="278" 
d="M92 0v510h94v-510h-94zM116 725l89 -144h-67l-131 144h109z" />
    <glyph glyph-name="iacute" unicode="&#xed;" horiz-adv-x="278" 
d="M92 0v510h94v-510h-94zM73 581l89 144h109l-131 -144h-67z" />
    <glyph glyph-name="icircumflex" unicode="&#xee;" horiz-adv-x="278" 
d="M92 0v510h94v-510h-94zM-6 581l99 144h91l100 -144h-80l-66 98l-65 -98h-79z" />
    <glyph glyph-name="idieresis" unicode="&#xef;" horiz-adv-x="278" 
d="M92 0v510h94v-510h-94zM10 588v100h94v-100h-94zM174 588v100h94v-100h-94z" />
    <glyph glyph-name="eth" unicode="&#xf0;" horiz-adv-x="611" 
d="M146 255q0 -76 41 -133.5t119 -57.5q77 0 118 57.5t41 133.5q0 77 -43.5 134t-115.5 57t-116 -57t-44 -134zM108 592l110 59q-55 33 -125 58l72 53q75 -27 137 -66l122 66l46 -53l-104 -56q90 -69 144.5 -170.5t54.5 -227.5q0 -112 -73 -189.5t-186 -77.5t-186.5 77.5
t-73.5 189.5q0 117 72 192t188 75q47 0 84 -22h2q-47 63 -109 108l-129 -69z" />
    <glyph glyph-name="ntilde" unicode="&#xf1;" horiz-adv-x="611" 
d="M80 0v510h91v-81h2q21 43 67 68t100 25q191 0 191 -219v-303h-94v264q0 92 -24 135t-84 47q-78 0 -116.5 -56.5t-38.5 -153.5v-236h-94zM182 586h-46q16 112 94 112q27 0 80.5 -23t73.5 -23q21 -1 32 12.5t14 33.5h46q-16 -112 -94 -112q-27 0 -80.5 23t-73.5 23
q-21 1 -32 -12.5t-14 -33.5z" />
    <glyph glyph-name="ograve" unicode="&#xf2;" horiz-adv-x="611" 
d="M46 255q0 117 72 192t188 75q115 0 187 -75t72 -192q0 -112 -73 -189.5t-186 -77.5t-186.5 77.5t-73.5 189.5zM146 255q0 -76 41 -133.5t119 -57.5q77 0 118 57.5t41 133.5q0 77 -43.5 134t-115.5 57t-116 -57t-44 -134zM283 725l89 -144h-67l-131 144h109z" />
    <glyph glyph-name="oacute" unicode="&#xf3;" horiz-adv-x="611" 
d="M46 255q0 117 72 192t188 75q115 0 187 -75t72 -192q0 -112 -73 -189.5t-186 -77.5t-186.5 77.5t-73.5 189.5zM146 255q0 -76 41 -133.5t119 -57.5q77 0 118 57.5t41 133.5q0 77 -43.5 134t-115.5 57t-116 -57t-44 -134zM240 581l89 144h109l-131 -144h-67z" />
    <glyph glyph-name="ocircumflex" unicode="&#xf4;" horiz-adv-x="611" 
d="M46 255q0 117 72 192t188 75q115 0 187 -75t72 -192q0 -112 -73 -189.5t-186 -77.5t-186.5 77.5t-73.5 189.5zM146 255q0 -76 41 -133.5t119 -57.5q77 0 118 57.5t41 133.5q0 77 -43.5 134t-115.5 57t-116 -57t-44 -134zM161 581l99 144h91l100 -144h-80l-66 98l-65 -98
h-79z" />
    <glyph glyph-name="otilde" unicode="&#xf5;" horiz-adv-x="611" 
d="M46 255q0 117 72 192t188 75q115 0 187 -75t72 -192q0 -112 -73 -189.5t-186 -77.5t-186.5 77.5t-73.5 189.5zM146 255q0 -76 41 -133.5t119 -57.5q77 0 118 57.5t41 133.5q0 77 -43.5 134t-115.5 57t-116 -57t-44 -134zM182 586h-46q16 112 94 112q27 0 80.5 -23
t73.5 -23q21 -1 32 12.5t14 33.5h46q-16 -112 -94 -112q-27 0 -80.5 23t-73.5 23q-21 1 -32 -12.5t-14 -33.5z" />
    <glyph glyph-name="odieresis" unicode="&#xf6;" horiz-adv-x="611" 
d="M46 255q0 117 72 192t188 75q115 0 187 -75t72 -192q0 -112 -73 -189.5t-186 -77.5t-186.5 77.5t-73.5 189.5zM146 255q0 -76 41 -133.5t119 -57.5q77 0 118 57.5t41 133.5q0 77 -43.5 134t-115.5 57t-116 -57t-44 -134zM177 588v100h94v-100h-94zM341 588v100h94v-100
h-94z" />
    <glyph glyph-name="divide" unicode="&#xf7;" horiz-adv-x="600" 
d="M47 209v88h506v-88h-506zM224 460q0 32 23 54.5t54 22.5q30 0 53 -23t23 -54q0 -29 -23 -52.5t-52 -23.5q-32 0 -55 22.5t-23 53.5zM224 46q0 31 22.5 53.5t54.5 22.5q30 0 53 -22.5t23 -53.5q0 -29 -23 -53t-52 -24q-32 0 -55 23t-23 54z" />
    <glyph glyph-name="oslash" unicode="&#xf8;" horiz-adv-x="611" 
d="M179 135l224 273q-40 38 -97 38q-72 0 -116 -57t-44 -134q0 -70 33 -120zM429 378l-225 -275q41 -39 102 -39q77 0 118 57.5t41 133.5q0 70 -36 123zM64 -6l57 71q-75 77 -75 190q0 117 72 192t188 75q90 0 153 -46l53 65l30 -25l-53 -65q76 -74 76 -196
q0 -112 -73 -189.5t-186 -77.5q-89 0 -155 50l-57 -69z" />
    <glyph glyph-name="ugrave" unicode="&#xf9;" horiz-adv-x="611" 
d="M531 510v-510h-91v81h-2q-21 -43 -67 -68t-100 -25q-191 0 -191 219v303h94v-264q0 -92 24 -135t84 -47q78 0 116.5 56.5t38.5 153.5v236h94zM283 725l89 -144h-67l-131 144h109z" />
    <glyph glyph-name="uacute" unicode="&#xfa;" horiz-adv-x="611" 
d="M531 510v-510h-91v81h-2q-21 -43 -67 -68t-100 -25q-191 0 -191 219v303h94v-264q0 -92 24 -135t84 -47q78 0 116.5 56.5t38.5 153.5v236h94zM240 581l89 144h109l-131 -144h-67z" />
    <glyph glyph-name="ucircumflex" unicode="&#xfb;" horiz-adv-x="611" 
d="M531 510v-510h-91v81h-2q-21 -43 -67 -68t-100 -25q-191 0 -191 219v303h94v-264q0 -92 24 -135t84 -47q78 0 116.5 56.5t38.5 153.5v236h94zM161 581l99 144h91l100 -144h-80l-66 98l-65 -98h-79z" />
    <glyph glyph-name="udieresis" unicode="&#xfc;" horiz-adv-x="611" 
d="M531 510v-510h-91v81h-2q-21 -43 -67 -68t-100 -25q-191 0 -191 219v303h94v-264q0 -92 24 -135t84 -47q78 0 116.5 56.5t38.5 153.5v236h94zM177 588v100h94v-100h-94zM341 588v100h94v-100h-94z" />
    <glyph glyph-name="yacute" unicode="&#xfd;" horiz-adv-x="500" 
d="M36 -215l6 77q24 -8 44 -8q29 0 52.5 18t35.5 42t18 42t6 24q0 3 -18 54l-173 476h103l137 -422h2l140 422h95l-188 -521q-10 -29 -13.5 -38t-14 -35.5t-17.5 -37t-19.5 -31t-24.5 -29.5t-28.5 -20t-36 -15.5t-42.5 -4.5q-24 0 -64 7zM184 581l89 144h109l-131 -144h-67z
" />
    <glyph glyph-name="thorn" unicode="&#xfe;" horiz-adv-x="611" 
d="M80 -210v960h94v-310h2q51 82 169 82q106 0 163 -74t57 -184q0 -115 -55.5 -195.5t-163.5 -80.5q-119 0 -170 82h-2v-280h-94zM465 257q2 77 -33.5 133t-106.5 56q-72 0 -111.5 -57t-39.5 -135q0 -73 38.5 -131.5t111.5 -58.5q69 0 106 61.5t35 131.5z" />
    <glyph glyph-name="ydieresis" unicode="&#xff;" horiz-adv-x="500" 
d="M36 -215l6 77q24 -8 44 -8q29 0 52.5 18t35.5 42t18 42t6 24q0 3 -18 54l-173 476h103l137 -422h2l140 422h95l-188 -521q-10 -29 -13.5 -38t-14 -35.5t-17.5 -37t-19.5 -31t-24.5 -29.5t-28.5 -20t-36 -15.5t-42.5 -4.5q-24 0 -64 7zM121 588v100h94v-100h-94zM285 588
v100h94v-100h-94z" />
    <glyph glyph-name="dotlessi" unicode="&#x131;" horiz-adv-x="278" 
d="M92 0v510h94v-510h-94z" />
    <glyph glyph-name="Lslash" unicode="&#x141;" horiz-adv-x="500" 
d="M88 0v236l-64 -38v72l64 38v390h100v-332l196 115v-72l-196 -115v-206h292v-88h-392z" />
    <glyph glyph-name="lslash" unicode="&#x142;" horiz-adv-x="278" 
d="M92 0v340l-64 -51v71l64 51v339h94v-265l64 51v-71l-64 -51v-414h-94z" />
    <glyph glyph-name="OE" unicode="&#x152;" horiz-adv-x="944" 
d="M493 88v522q-40 6 -61 6q-128 0 -200.5 -67t-72.5 -191q0 -130 75.5 -203t198.5 -73q36 0 60 6zM875 698v-88h-282v-204h262v-88h-262v-230h289v-88h-290q-39 0 -78 -3q-9 0 -24.5 -1t-28.5 -1.5t-25 -0.5q-170 0 -276.5 97.5t-106.5 266.5q0 158 106.5 252t278.5 94
q37 0 73 -3q2 0 30.5 -1.5t42.5 -1.5h291z" />
    <glyph glyph-name="oe" unicode="&#x153;" horiz-adv-x="944" 
d="M850 117v-95q-75 -34 -146 -34q-159 0 -210 110q-26 -56 -82 -83t-118 -27q-116 0 -184.5 75t-68.5 192q0 108 70 187.5t183 79.5q148 0 203 -100q48 100 182 100q62 0 107.5 -23.5t70 -65.5t35.5 -91t11 -108h-361q0 -71 47.5 -120.5t119.5 -49.5q75 0 141 53zM141 255
q-1 -81 37.5 -136t116.5 -55q70 0 111.5 58.5t41.5 132.5q0 72 -40 131.5t-113 59.5q-74 0 -114.5 -59.5t-39.5 -131.5zM542 304h261q0 54 -35 98t-90 44q-60 0 -98 -41t-38 -101z" />
    <glyph glyph-name="Scaron" unicode="&#x160;" horiz-adv-x="500" 
d="M420 685l-14 -92q-74 29 -131 29q-50 0 -86 -21.5t-36 -71.5q0 -31 22 -55.5t55.5 -39.5t72.5 -36t72.5 -43.5t55.5 -63.5t22 -95q0 -106 -71 -157t-184 -51q-54 0 -143 29l10 93q83 -34 145 -34q51 0 94 29t43 85q0 43 -31 72.5t-75 49.5t-88 42.5t-75 64t-31 101.5
q0 90 63 140t161 50q78 0 149 -25zM395 893l-99 -144h-91l-100 144h80l66 -98l65 98h79z" />
    <glyph glyph-name="scaron" unicode="&#x161;" horiz-adv-x="389" 
d="M37 16l5 84q26 -17 60 -26.5t57 -9.5q38 0 67 17.5t29 55.5q0 25 -23 45t-55.5 35t-64.5 32t-55 46.5t-23 69.5q0 76 50 116.5t130 40.5q50 0 117 -20l-8 -82q-15 9 -48 17.5t-51 8.5q-38 0 -64 -16t-26 -46q0 -28 23 -48t55.5 -34t64.5 -30.5t55 -48t23 -76.5
q0 -77 -52 -118t-126 -41q-88 0 -140 28zM340 725l-99 -144h-91l-100 144h80l66 -98l65 98h79z" />
    <glyph glyph-name="Ydieresis" unicode="&#x178;" horiz-adv-x="667" 
d="M284 0v292l-273 406h117l208 -313l203 313h117l-272 -406v-292h-100zM205 756v100h94v-100h-94zM369 756v100h94v-100h-94z" />
    <glyph glyph-name="Zcaron" unicode="&#x17d;" 
d="M32 0v90l362 520h-350v88h465v-90l-361 -520h367v-88h-483zM423 893l-99 -144h-91l-100 144h80l66 -98l65 98h79z" />
    <glyph glyph-name="zcaron" unicode="&#x17e;" horiz-adv-x="500" 
d="M43 0v82l294 352h-280v76h389v-82l-294 -352h305v-76h-414zM395 725l-99 -144h-91l-100 144h80l66 -98l65 98h79z" />
    <glyph glyph-name="florin" unicode="&#x192;" 
d="M475 414l-14 -70h-126l-69 -368q-9 -50 -18.5 -80t-29 -60.5t-52.5 -44t-82 -13.5q-28 0 -51 5l16 81q12 -4 30 -4q30 0 49 17t25.5 36.5t12.5 52.5l71 378h-112l13 70h112l21 109q9 43 19 71.5t29.5 57.5t52 43.5t78.5 14.5q9 0 73 -8l-14 -80q-28 6 -41 6
q-22 0 -37.5 -6t-24.5 -13.5t-16.5 -24.5t-11 -29t-8.5 -37l-21 -104h126z" />
    <glyph glyph-name="circumflex" unicode="&#x2c6;" horiz-adv-x="278" 
d="M-6 581l99 144h91l100 -144h-80l-66 98l-65 -98h-79z" />
    <glyph glyph-name="caron" unicode="&#x2c7;" horiz-adv-x="278" 
d="M284 725l-99 -144h-91l-100 144h80l66 -98l65 98h79z" />
    <glyph glyph-name="uni02C9" unicode="&#x2c9;" horiz-adv-x="278" 
d="M-9 615v58h296v-58h-296z" />
    <glyph glyph-name="breve" unicode="&#x2d8;" horiz-adv-x="278" 
d="M-15 722h49q15 -78 105 -78t105 78h49q-7 -64 -47.5 -100t-106.5 -36t-106.5 36t-47.5 100z" />
    <glyph glyph-name="dotaccent" unicode="&#x2d9;" horiz-adv-x="278" 
d="M92 588v100h94v-100h-94z" />
    <glyph glyph-name="ring" unicode="&#x2da;" horiz-adv-x="278" 
d="M139 767q41 0 71.5 -30.5t30.5 -71.5t-30.5 -71.5t-71.5 -30.5t-71.5 30t-30.5 72t30 72t72 30zM139 727q-25 0 -43.5 -18.5t-18.5 -43.5t18.5 -43.5t43.5 -18.5q24 0 43 19t19 43q0 25 -18.5 43.5t-43.5 18.5z" />
    <glyph glyph-name="ogonek" unicode="&#x2db;" horiz-adv-x="278" 
d="M182 0h48q-86 -68 -86 -124q0 -46 33 -46t56 29l31 -8q-41 -61 -114 -61q-14 0 -23.5 1.5t-25.5 8.5t-24.5 25t-8.5 47q0 13 6 28.5t34 44.5t74 55z" />
    <glyph glyph-name="tilde" unicode="&#x2dc;" horiz-adv-x="278" 
d="M15 586h-46q16 112 94 112q27 0 80.5 -23t73.5 -23q21 -1 32 12.5t14 33.5h46q-16 -112 -94 -112q-27 0 -80.5 23t-73.5 23q-21 1 -32 -12.5t-14 -33.5z" />
    <glyph glyph-name="hungarumlaut" unicode="&#x2dd;" horiz-adv-x="278" 
d="M-17 581l89 144h109l-131 -144h-67zM164 581l89 144h109l-131 -144h-67z" />
    <glyph glyph-name="uni03A9" unicode="&#x3a9;" horiz-adv-x="715" 
d="M190 75v3q-57 51 -94 128t-37 172q0 142 85.5 235.5t215.5 93.5q132 0 213 -97t81 -227q0 -98 -38.5 -178t-93.5 -127v-3h146v-75h-247v55q60 40 100.5 119.5t40.5 190.5q-1 105 -55 185t-148 80q-93 0 -150 -76.5t-57 -192.5q0 -104 41.5 -187t99.5 -119v-55h-248v75
h145z" />
    <glyph glyph-name="uni03BC" unicode="&#x3bc;" horiz-adv-x="611" 
d="M531 510v-510h-91v81h-2q-21 -43 -67 -68t-100 -25q-61 0 -97 20v-218h-94v720h94v-264q0 -92 24 -135t84 -47q78 0 116.5 56.5t38.5 153.5v236h94z" />
    <glyph glyph-name="pi" unicode="&#x3c0;" horiz-adv-x="580" 
d="M554 441h-77v-294q0 -98 14 -147h-89q-17 31 -17 141v300h-167q-5 -104 -25 -239t-45 -202h-90q26 79 46 210t23 231q-75 0 -107 -12l-12 61q43 29 149 29h405z" />
    <glyph glyph-name="endash" unicode="&#x2013;" horiz-adv-x="500" 
d="M0 234v70h500v-70h-500z" />
    <glyph glyph-name="emdash" unicode="&#x2014;" horiz-adv-x="1000" 
d="M0 234v70h1000v-70h-1000z" />
    <glyph glyph-name="quoteleft" unicode="&#x2018;" horiz-adv-x="278" 
d="M226 698l-63 -245h-111l85 245h89z" />
    <glyph glyph-name="quoteright" unicode="&#x2019;" horiz-adv-x="278" 
d="M52 453l62 245h112l-88 -245h-86z" />
    <glyph glyph-name="quotesinglbase" unicode="&#x201a;" horiz-adv-x="278" 
d="M52 -133l63 245h111l-85 -245h-89z" />
    <glyph glyph-name="quotedblleft" unicode="&#x201c;" 
d="M270 698l-62 -245h-112l86 245h88zM460 698l-64 -245h-110l84 245h90z" />
    <glyph glyph-name="quotedblright" unicode="&#x201d;" 
d="M96 453l63 245h111l-85 -245h-89zM286 453l63 245h111l-85 -245h-89z" />
    <glyph glyph-name="quotedblbase" unicode="&#x201e;" 
d="M96 -133l63 245h111l-85 -245h-89zM286 -133l63 245h111l-85 -245h-89z" />
    <glyph glyph-name="dagger" unicode="&#x2020;" 
d="M234 0v453h-167v70h167v175h88v-175h167v-70h-167v-453h-88z" />
    <glyph glyph-name="daggerdbl" unicode="&#x2021;" 
d="M489 162h-167v-162h-88v162h-167v70h167v234h-167v70h167v162h88v-162h167v-70h-167v-234h167v-70z" />
    <glyph glyph-name="bullet" unicode="&#x2022;" horiz-adv-x="500" 
d="M76 349q0 73 50.5 123.5t123.5 50.5t124 -50.5t51 -123.5t-51 -124t-124 -51t-123.5 51t-50.5 124z" />
    <glyph glyph-name="ellipsis" unicode="&#x2026;" horiz-adv-x="1000" 
d="M111 0v112h112v-112h-112zM444 0v112h112v-112h-112zM777 0v112h112v-112h-112z" />
    <glyph glyph-name="perthousand" unicode="&#x2030;" horiz-adv-x="1000" 
d="M153 310q-80 0 -115 57t-35 143q0 92 33 146t117 54q150 0 150 -200q0 -86 -35 -143t-115 -57zM153 380q62 0 62 130v7q0 25 -1 40t-6 37.5t-19 34t-36 11.5t-35.5 -13t-19 -37.5t-6.5 -40t-1 -39.5q0 -130 62 -130zM509 58q62 0 62 130v7q0 25 -1 40t-6 37.5t-19 34
t-36 11.5t-35.5 -13t-19 -37.5t-6.5 -40t-1 -39.5q0 -130 62 -130zM509 -12q-80 0 -115 57t-35 143q0 92 33 146t117 54q150 0 150 -200q0 -86 -35 -143t-115 -57zM847 58q62 0 62 130v7q0 25 -1 40t-6 37.5t-19 34t-36 11.5t-35.5 -13t-19 -37.5t-6.5 -40t-1 -39.5
q0 -130 62 -130zM847 -12q-80 0 -115 57t-35 143q0 92 33 146t117 54q150 0 150 -200q0 -86 -35 -143t-115 -57zM78 -22l433 742h72l-433 -742h-72z" />
    <glyph glyph-name="guilsinglleft" unicode="&#x2039;" horiz-adv-x="278" 
d="M163 67l-143 202l143 202h88l-130 -202l130 -202h-88z" />
    <glyph glyph-name="guilsinglright" unicode="&#x203a;" horiz-adv-x="278" 
d="M115 471l143 -202l-143 -202h-88l130 202l-130 202h88z" />
    <glyph glyph-name="fraction" unicode="&#x2044;" horiz-adv-x="167" 
d="M-169 -22l433 742h72l-433 -742h-72z" />
    <glyph glyph-name="Euro" unicode="&#x20ac;" 
d="M582 684l-20 -83q-51 27 -124 27q-86 0 -145 -49.5t-81 -133.5h318l-13 -54h-317q-4 -42 0 -84h299l-12 -54h-275q22 -84 81 -132.5t144 -48.5q72 0 125 25l6 -87q-56 -22 -139 -22q-128 0 -215.5 70.5t-112.5 194.5h-95l13 54h75q-3 42 0 84h-88l13 54h83
q27 121 115 193t212 72q89 0 153 -26z" />
    <glyph glyph-name="afii61289" unicode="&#x2113;" horiz-adv-x="493" 
d="M431 160l41 -38q-68 -130 -194 -130q-81 0 -122.5 50t-46.5 128q-1 4 -1 12q-46 -38 -55 -45l-26 52q66 55 80 68v266q0 126 46.5 185t115.5 59q63 0 96 -47t33 -120q0 -163 -203 -359v-36q1 -69 30 -104.5t73 -35.5q41 0 75.5 28t57.5 67zM195 527v-199q142 156 142 273
q0 98 -66 98q-31 0 -53.5 -41t-22.5 -131z" />
    <glyph glyph-name="trademark" unicode="&#x2122;" horiz-adv-x="990" 
d="M182 282v346h-128v70h332v-70h-128v-346h-76zM484 282v416h118l109 -281l107 281h118v-416h-76v318h-2l-117 -318h-62l-117 318h-2v-318h-76z" />
    <glyph glyph-name="Omega" unicode="&#x2126;" horiz-adv-x="715" 
d="M190 75v3q-57 51 -94 128t-37 172q0 142 85.5 235.5t215.5 93.5q132 0 213 -97t81 -227q0 -98 -38.5 -178t-93.5 -127v-3h146v-75h-247v55q60 40 100.5 119.5t40.5 190.5q-1 105 -55 185t-148 80q-93 0 -150 -76.5t-57 -192.5q0 -104 41.5 -187t99.5 -119v-55h-248v75
h145z" />
    <glyph glyph-name="estimated" unicode="&#x212e;" horiz-adv-x="870" 
d="M836 339h-650q-5 0 -5 -4v-197q0 -13 9 -22q104 -107 245 -107q76 0 143 32t116 87h57q-54 -64 -138 -101.5t-179 -37.5q-166 0 -283 105.5t-117 254.5t117 255t283 106t284 -106t118 -255v-10zM688 365v197q0 14 -9 24q-104 102 -244 102t-244 -106q-10 -9 -10 -24v-193
q0 -7 5 -7h498q4 0 4 7z" />
    <glyph glyph-name="partialdiff" unicode="&#x2202;" horiz-adv-x="554" 
d="M102 659l-29 67q72 56 172 56q109 0 184 -98t75 -279q0 -184 -70 -298.5t-196 -114.5q-94 0 -145.5 70t-51.5 162q0 114 62.5 185.5t150.5 71.5q59 0 101 -30t58 -61h1q1 11 1 40q0 119 -52 197.5t-129 78.5q-74 0 -132 -47zM246 68h1q63 0 105 70.5t52 167.5
q-12 36 -48 68.5t-86 32.5q-58 0 -98.5 -54.5t-40.5 -129.5q0 -67 31.5 -111t83.5 -44z" />
    <glyph glyph-name="Delta" unicode="&#x2206;" horiz-adv-x="649" 
d="M29 0v58l244 655h107l239 -653v-60h-590zM123 74h398l-133 353q-6 20 -31 89t-32 94h-4q-5 -20 -27.5 -82t-29.5 -85z" />
    <glyph glyph-name="product" unicode="&#x220f;" horiz-adv-x="705" 
d="M678 613h-106v-709h-90v709h-260v-709h-90v709h-107v82h653v-82z" />
    <glyph glyph-name="summation" unicode="&#x2211;" horiz-adv-x="553" 
d="M532 -96h-509v60l259 335l-248 333v63h483v-78h-359v-3l228 -301l-248 -320v-3h394v-86z" />
    <glyph glyph-name="minus" unicode="&#x2212;" horiz-adv-x="600" 
d="M47 209v88h506v-88h-506z" />
    <glyph glyph-name="uni2215" unicode="&#x2215;" horiz-adv-x="167" 
d="M-169 -22l433 742h72l-433 -742h-72z" />
    <glyph glyph-name="uni2219" unicode="&#x2219;" horiz-adv-x="278" 
d="M80 304q1 24 18.5 41t41.5 17t41.5 -17t16.5 -41q1 -24 -16.5 -42t-41.5 -18t-41.5 18t-18.5 42z" />
    <glyph glyph-name="radical" unicode="&#x221a;" horiz-adv-x="577" 
d="M580 829l-223 -975h-77l-156 454l-74 -29l-17 54l147 58l120 -354q3 -12 9.5 -38.5t8.5 -37.5l1 -1q2 11 7 39.5t7 39.5l181 790h66z" />
    <glyph glyph-name="infinity" unicode="&#x221e;" horiz-adv-x="775" 
d="M725 289v-1q0 -73 -46 -118t-109 -45q-45 0 -87.5 27.5t-93.5 89.5q-49 -57 -91 -87t-97 -30q-62 0 -106.5 45.5t-44.5 113.5q0 70 45.5 116t113.5 46q52 0 94.5 -30.5t88.5 -85.5q23 26 30.5 34t30 29t37 29t38.5 16t49 8q65 0 106.5 -43.5t41.5 -113.5zM209 179h1
q26 0 54.5 16.5t44 32t41.5 45.5q5 6 8 9q-31 39 -45.5 55.5t-45.5 36t-64 19.5q-44 0 -70.5 -31.5t-26.5 -78.5q0 -44 29 -74t74 -30zM571 393h-1q-18 0 -36 -6.5t-36 -21.5t-28 -24.5t-28.5 -30t-21.5 -23.5q53 -61 84.5 -84.5t68.5 -23.5q43 0 69 32t26 73q0 50 -27 79.5
t-70 29.5z" />
    <glyph glyph-name="integral" unicode="&#x222b;" horiz-adv-x="368" 
d="M350 840l-12 -63q-18 10 -37 10q-32 0 -50 -24q-32 -39 -32 -175q0 -78 7 -243.5t7 -250.5q0 -135 -40 -200q-35 -58 -109 -58q-39 0 -69 16l14 66q27 -12 45 -12q29 0 45 22q32 42 32 166q0 86 -7 254.5t-7 248.5q0 84 13 134t43 81q38 41 101 41q32 0 56 -13z" />
    <glyph glyph-name="approxequal" unicode="&#x2248;" horiz-adv-x="558" 
d="M478 436l35 -32q-49 -97 -130 -97q-28 0 -51 9t-65 32q-57 34 -91 34q-31 0 -52.5 -18.5t-44.5 -54.5l-36 31q23 45 60 71t80 26q14 0 26.5 -2.5t26 -8t20 -8.5t21 -11.5t16.5 -9.5q4 -2 18.5 -10.5t19.5 -10.5t15.5 -6.5t19.5 -6t19 -1.5q28 0 49 18t44 56zM478 261
l35 -32q-50 -97 -131 -97q-28 0 -51 9.5t-64 32.5q-59 34 -91 34q-31 0 -52 -19t-45 -56l-36 32q23 45 60 71t80 26q12 0 24 -2t20 -4.5t20 -8t15.5 -7.5t16 -9.5t13.5 -7.5q5 -3 15.5 -9t15.5 -8.5t14 -6.5t15.5 -6t15 -3.5t17.5 -1.5q29 0 50 17.5t43 55.5z" />
    <glyph glyph-name="notequal" unicode="&#x2260;" horiz-adv-x="558" 
d="M400 505l-43 -95h150v-56h-172l-65 -143h237v-56h-259l-52 -116l-45 19l44 97h-145v56h168l64 143h-232v56h254l52 114z" />
    <glyph glyph-name="lessequal" unicode="&#x2264;" horiz-adv-x="558" 
d="M505 97l-450 224v60l449 223v-66l-390 -186v-2l391 -187v-66zM508 0h-458v57h458v-57z" />
    <glyph glyph-name="greaterequal" unicode="&#x2265;" horiz-adv-x="558" 
d="M57 604l449 -224v-60l-449 -223v66l390 187v2l-390 186v66zM507 0h-456v57h456v-57z" />
    <glyph glyph-name="lozenge" unicode="&#x25ca;" horiz-adv-x="578" 
d="M524 347l-201 -394h-73l-197 394l200 395h74zM442 345l-134 266q-14 33 -18 55h-3q-10 -33 -19 -55l-133 -262l134 -268q14 -35 17 -53h4q12 39 18 51z" />
    </font>
</defs>
</svg>
